<svg xmlns="http://www.w3.org/2000/svg" viewBox="0 0 265.97 36.32"><defs><style>.cls-1{fill:#fff;}</style></defs><g id="Lager_2" data-name="Lager 2"><g id="Lager_1-2" data-name="Lager 1"><path class="cls-1" d="M105,24.84l-.08,0c-.56.1-1.11.21-1.67.3-.86.13-1.73.22-2.59.37-1.56.27-3.12.61-4.7.88q-5.5.93-11,1.83l-1.62.26-.87.13a3.51,3.51,0,0,0,.27.66,1.77,1.77,0,0,0,.15.31,3.67,3.67,0,0,0,.36.6l1-.24,1.5-.34c.82-.18,1.65-.33,2.49-.47,1.5-.23,3-.42,4.52-.68,2.06-.35,4.11-.76,6.17-1.12,1.89-.32,3.78-.62,5.68-.93l1-.16a3.46,3.46,0,0,0,.12-.67l.06-.88Zm-.57,2.36-.27,0c-1.49.23-3,.42-4.47.66-4.91.79-9.81,1.62-14.72,2.43l-.39.06-1.08.17a7,7,0,0,0,.51.58l1.16-.21.69-.12c1-.17,2-.26,3-.42s2.08-.4,3.13-.56c1.3-.21,2.6-.35,3.9-.57,2.18-.35,4.35-.77,6.54-1.12l1.24-.19,1.1-.16c.14-.24.28-.49.4-.74Zm.88-4.35-.26,0c-1.58.25-3.16.49-4.73.77-1,.17-2,.22-3,.49a31.76,31.76,0,0,1-3.51.6,18.35,18.35,0,0,0-2.59.36,39,39,0,0,1-5.24,1,15.86,15.86,0,0,0-3.22.83c-.26.1-.52.21-.77.33a5.65,5.65,0,0,1,.29.67c.24-.13.49-.25.73-.36a3.28,3.28,0,0,1,.52-.2,28.24,28.24,0,0,1,3.56-.8c1.1-.21,2.21-.36,3.32-.53.39-.06.79-.08,1.18-.14l4.43-.77c1.14-.19,2.28-.35,3.42-.57.67-.13,1.32-.41,2-.51l3.66-.52.75-.1c0-.22,0-.44,0-.66ZM85.21,28.92c-.13,0-.25,0-.38,0a.43.43,0,0,0,0-.11l-1.24.28-.89.2a1.77,1.77,0,0,0,.15.31l.92-.21,1.44-.33a2.13,2.13,0,0,0,.27-.07A2.33,2.33,0,0,0,85.21,28.92Zm7.11-1.3-3.66.65c-.6.11-1.21.23-1.8.36a1.52,1.52,0,0,0-.33.18,1.34,1.34,0,0,0,.35,0l1.92-.36,3.65-.69a2.19,2.19,0,0,0,.33-.12Zm1.54-.17s-.06,0-.08,0,.07.07.1.07a.47.47,0,0,0,.15-.06Zm6.49-1.14a2.48,2.48,0,0,0-.27,0,.19.19,0,0,1,0-.07l-4.76.92a1.3,1.3,0,0,0-.35.21,2.16,2.16,0,0,0,.36,0l3.22-.59c.61-.11,1.23-.19,1.84-.3a.87.87,0,0,0,.25-.1Zm1.38-.16a.51.51,0,0,0-.17,0l.11.05a1.13,1.13,0,0,0,.18,0Zm2.08-.48a7.49,7.49,0,0,0-.79.18c-.12,0-.22.09-.34.13l.29.09c.33-.05.6-.09.86-.15a.62.62,0,0,0,.22-.15C104,25.74,103.88,25.66,103.81,25.67Zm1-.1h0s-.06,0-.08,0l.08,0,.08,0,.08,0Z"/><path class="cls-1" d="M105.83,17l-.59.09-.13,0c-2.71.42-5.41.91-8.11,1.38-.77.14-1.52.35-2.29.48-3.26.59-6.53,1.13-9.78,1.73-1.22.22-2.43.49-3.64.77l-.81.19c0-.15,0-.29,0-.44l0-.36.77-.15c1.77-.35,3.55-.66,5.32-1s3.43-.7,5.14-1c.52-.1,1.07-.09,1.58-.19,2-.39,4-.81,6-1.2.8-.15,1.6-.25,2.4-.36a1.11,1.11,0,0,0,.19,0,9.13,9.13,0,0,1,3-.6l.7-.08h0a5.46,5.46,0,0,1,.21.72A.07.07,0,0,1,105.83,17Z"/><path class="cls-1" d="M104,12.81l-.86.19-1.54.32c-1.31.26-2.63.5-3.95.75-.52.09-1,.21-1.57.31l-8.57,1.56c-1.54.27-3.08.52-4.61.81a9.77,9.77,0,0,0-1.06.29l-.74.24-.13,0c0-.26.08-.52.14-.77l.78-.26.12,0c.28-.07.56-.12.68-.49s.4-.3.63-.17a1.93,1.93,0,0,0,1.45.14L88,15.15c1.07-.21,2.13-.49,3.2-.59,1.72-.17,3.35-.76,5-1,1-.17,2-.37,3-.46a17.11,17.11,0,0,0,2.65-.56l.66-.15h0c.33-.07.65-.12,1-.16A5.1,5.1,0,0,1,104,12.81Z"/><path class="cls-1" d="M105.18,15.12l-.74.08a15.25,15.25,0,0,0-2.49.5,11.85,11.85,0,0,1-2.21.36,32.31,32.31,0,0,0-4.6.81c-.37.08-.75.06-1.12.12-1.81.31-3.62.6-5.43,1-2.29.45-4.57.95-6.85,1.44l-.27.06a3.35,3.35,0,0,0-.77.27c0-.23,0-.44,0-.67a.49.49,0,0,0,0-.12,5.79,5.79,0,0,1,.8-.27,4.9,4.9,0,0,1,.55-.13c2-.33,4-.67,6-1,2.23-.42,4.46-.91,6.7-1.32,2.06-.37,4.13-.67,6.19-1l3.11-.54h0l.71-.13C105,14.69,105.08,14.9,105.18,15.12Z"/><path class="cls-1" d="M97.38,8.21a8.77,8.77,0,0,1-1.16.11,8.65,8.65,0,0,0-1.65.29l-.73.15h0l-3.74.8-2.8.58h0l-.74.15-1.41.31a8.89,8.89,0,0,1,1.41-1l.13-.07.79-.16c2-.46,4.07-.95,6.11-1.39.36,0,.72,0,1.08,0,.75,0,1.51,0,2.25.16Z"/><path class="cls-1" d="M102.24,11.08l-.94.19c-.13,0-.27,0-.4.06-3.12.46-6.22,1.06-9.33,1.62a3.51,3.51,0,0,0-1.15.36,10.63,10.63,0,0,1-3.92,1.16,20.85,20.85,0,0,0-4.29,1h0c-.33.12-.65.25-1,.39.09-.31.19-.6.31-.9h0a9.55,9.55,0,0,1,1-.34l.18-.05c1.85-.45,3.73-.79,5.59-1.21a7.65,7.65,0,0,0,1.59-.54,15.88,15.88,0,0,1,2.3-.76c1.86-.58,3.82-.59,5.69-1.12.48-.13,1-.06,1.49-.14s.76-.17,1.15-.26.63-.15,1-.21h0l.26.26C101.94,10.8,102.09,10.94,102.24,11.08Z"/><path class="cls-1" d="M106,19.17l-.83.13-6.62,1.13c-2.09.37-4.17.76-6.26,1.12-1.72.3-3.45.52-5.18.83-1.56.27-3.12.61-4.68.93-.4.09-.8.16-1.21.23s-.51.08-.77.14c0-.23,0-.46,0-.7l.37-.06.4-.06c2.91-.39,5.79-.9,8.66-1.49,1.22-.25,2.47-.34,3.7-.56,1-.18,2.06-.47,3.11-.65,1.5-.26,3-.46,4.53-.7a5.83,5.83,0,0,0,1.46-.31,8.32,8.32,0,0,1,2.59-.58l.78-.1C106,18.71,106,18.94,106,19.17Z"/><path class="cls-1" d="M105.93,20.64c0,.25-.05.51-.07.77l-.83.13h0l-.43.06c-1.21.16-2.42.28-3.61.46s-2.43.48-3.68.56a22,22,0,0,0-2.26.45c-1.48.26-3,.47-4.43.73s-3.06.57-4.59.84c-.43.08-.88.08-1.31.16-.92.17-1.83.37-2.75.55l-.13,0a1.75,1.75,0,0,1-.51,0c-.09,0-.2-.16-.22-.25a.37.37,0,0,1,.12-.32,1.59,1.59,0,0,1,.29-.15,1.63,1.63,0,0,1,.31-.11,16.5,16.5,0,0,1,1.84-.33c2.31-.21,4.57-.7,6.85-1.08,1.42-.24,2.84-.44,4.26-.68.71-.12,1.4-.31,2.11-.43a29.22,29.22,0,0,1,3-.47,31.79,31.79,0,0,0,4.24-.71,7,7,0,0,1,.9-.14Z"/><path class="cls-1" d="M100.34,9.43h-.06L99,9.68h0c-1.27.23-2.55.46-3.82.72-2.75.56-5.5,1.15-8.24,1.72l-2.92.6L82.58,13a6.25,6.25,0,0,1,.54-.73l0,0,1.65-.34,3.36-.68c1.47-.29,2.94-.55,4.41-.84l5.54-1.07h0l.16,0,1.46-.25C99.94,9.17,100.14,9.29,100.34,9.43Z"/><path class="cls-1" d="M104.26,28.74l-.36.61h0l-1.22.2-6.79,1.18-3.71.6c-1.68.28-3.36.55-5,.86l-1.3.25-.18,0-.07,0q-.41-.26-.78-.54l1.41-.22h0l4.68-.73c1.45-.23,2.89-.51,4.34-.75,1.7-.28,3.4-.52,5.09-.79l2.72-.45h0Z"/><path class="cls-1" d="M103.13,30.51c-.13.18-.26.36-.41.54h0c-.44.06-.87.12-1.31.2-2.09.33-4.17.74-6.26,1.11l-5,.91h0c-.72.13-1.44.27-2.15.42l-.22,0-.24-.13L87,33.28,88.38,33c1.94-.35,3.89-.69,5.83-1,2.19-.37,4.38-.7,6.57-1.08l1.06-.18h0Z"/><path class="cls-1" d="M101.2,32.87l-.13.14a2.47,2.47,0,0,1-.74.52l-5.45.76c-1.23.17-2.47.28-3.7.47a3.89,3.89,0,0,0-.47.09,2.23,2.23,0,0,0-.65-.37l6.81-1Z"/><path class="cls-1" d="M24.22,30.08c0-.68-.24-1.36-.21-2a52.84,52.84,0,0,0-.32-8,3.49,3.49,0,0,1,0-1,10.14,10.14,0,0,0-.44-5.67,6.76,6.76,0,0,0-2.79-3.4c-.3-.18-.59-.36-.87-.56a4.58,4.58,0,0,0-1.9-.74A18.91,18.91,0,0,0,15,8.48,10,10,0,0,0,9.91,9.59a18.13,18.13,0,0,0-2,1.34,7.48,7.48,0,0,0-.74.65c-.07-.33-.17-.65-.21-1s0-.68,0-1c0-.62,0-1.25,0-1.87A9.26,9.26,0,0,1,7,5.17c.14-.67.11-1.38.24-2A6.83,6.83,0,0,0,7,1.05C7,.93,6.88.73,6.78.71A18,18,0,0,0,4.84.48c-.49,0-1,.08-1.48.09-.68,0-1.37,0-2,0C.44.63.25.89.21,1.75.16,2.84.08,3.93,0,5a5.23,5.23,0,0,0,0,.56C.07,6.64.15,7.69.19,8.76c0,1.49,0,3,.1,4.49q.15,3.18,0,6.37c-.08,1.46,0,2.93,0,4.4,0,.9,0,1.81,0,2.71a28.68,28.68,0,0,1,.14,3.81A23.33,23.33,0,0,0,.6,33.8c0,.32.13.47.45.44s.74-.08,1.12-.08A5.25,5.25,0,0,1,4,34.2a6.83,6.83,0,0,0,2.49.25.85.85,0,0,0,.94-.82,5,5,0,0,0,0-.66c0-1.49-.07-3-.08-4.49,0-2,0-4.06,0-6.09H7.19c.11-1.33.2-2.68.35-4a3.69,3.69,0,0,1,.36-1.45,7,7,0,0,1,2.68-2.24,1.06,1.06,0,0,1,.36-.09c.78-.08,1.55-.18,2.32-.22A2.56,2.56,0,0,1,15.83,16a20.14,20.14,0,0,1,.7,3.28,4.31,4.31,0,0,1,.09,1c0,1,0,2,0,3,0,.62,0,1.25.1,1.87A11.14,11.14,0,0,1,16.8,29a1.81,1.81,0,0,0,0,.73,6.81,6.81,0,0,1-.15,2.88,2,2,0,0,0,.26,1.77c.36.56.33.56.92.31a7.34,7.34,0,0,1,1.48-.55,6.55,6.55,0,0,1,2.68.1,5.67,5.67,0,0,0,.84.11c.82,0,1.35-.28,1.41-1.09A24.14,24.14,0,0,0,24.22,30.08ZM23,33.49a6.11,6.11,0,0,1-1.47-.19,2.9,2.9,0,0,0-1.28,0,9.48,9.48,0,0,1-1.77.05.47.47,0,0,1-.48-.48,20,20,0,0,1-.07-2,2.5,2.5,0,0,0-.16-1.63c-.17-.27-.05-.73-.08-1.1-.07-1-.19-1.93-.24-2.89-.07-1.39-.12-2.78-.12-4.17A16.25,16.25,0,0,0,17,17.65a8.49,8.49,0,0,0-.45-2.09A4.3,4.3,0,0,0,15,13.92a1.12,1.12,0,0,0-.49-.26c-1.11-.06-2.22-.52-3.31.09a4.28,4.28,0,0,1-.82.21c-.17,0-.43.06-.51.18-.56.8-1.56,1-2.19,1.72-.38.44-.81.77-.65,1.44a.71.71,0,0,1-.06.45,13.17,13.17,0,0,0-.34,4.92c0,.84,0,1.69.06,2.53.12,1.31-.15,2.63,0,3.91s-.17,2.68.06,4c.06.33,0,.46-.37.47a5,5,0,0,1-1.38,0,13.23,13.23,0,0,0-3.26-.28c-.64,0-.61,0-.74-.66a7.58,7.58,0,0,1,0-2.23c.07-.84,0-1.69,0-2.53,0-1.41,0-2.81-.05-4.22,0-1.09-.12-2.18-.12-3.27,0-.81.09-1.62.12-2.43,0-.59,0-1.18,0-1.77,0-1.69-.06-3.38-.12-5.06C.8,9.35.71,7.5.64,5.67c0-.22,0-.44,0-.66C.7,4,.78,3.08.85,2.11c0-.62.07-.69.71-.72s1.25,0,1.87,0v0c.72,0,1.44,0,2.15,0,.56,0,.66.17.58.71a7.84,7.84,0,0,0,.11,2.51,9.2,9.2,0,0,1,0,2C6.18,7.31,6,8.09,6,8.86c0,1.09.08,2.19.15,3.28a4.41,4.41,0,0,0,.19,1c.08.28.32.31.47.07A9.89,9.89,0,0,1,10.68,10a7.18,7.18,0,0,1,2.42-.68,15.18,15.18,0,0,1,2.7-.09c.63,0,1.24.11,1.86.18a1.65,1.65,0,0,1,.45.11,6.75,6.75,0,0,1,4.22,3.85c.08.23.24.44.33.66.18.47.38.94,0,1.42a.86.86,0,0,0-.13.52c.12,1,.26,2,.4,3,0,.43.12.86.15,1.3.09,1.21.22,2.43.23,3.64a32.42,32.42,0,0,1-.05,4.18,11,11,0,0,0,.11,2.14c.07.87.17,1.73.22,2.6C23.61,33.4,23.55,33.48,23,33.49Z"/><path class="cls-1" d="M23,33.49a6.11,6.11,0,0,1-1.47-.19,2.9,2.9,0,0,0-1.28,0,9.48,9.48,0,0,1-1.77.05.47.47,0,0,1-.48-.48,20,20,0,0,1-.07-2,2.5,2.5,0,0,0-.16-1.63c-.17-.27-.05-.73-.08-1.1-.07-1-.19-1.93-.24-2.89-.07-1.39-.12-2.78-.12-4.17A16.25,16.25,0,0,0,17,17.65a8.49,8.49,0,0,0-.45-2.09A4.3,4.3,0,0,0,15,13.92a1.12,1.12,0,0,0-.49-.26c-1.11-.06-2.22-.52-3.31.09a4.28,4.28,0,0,1-.82.21c-.17,0-.43.06-.51.18-.56.8-1.56,1-2.19,1.72-.38.44-.81.77-.65,1.44a.71.71,0,0,1-.06.45,13.17,13.17,0,0,0-.34,4.92c0,.84,0,1.69.06,2.53.12,1.31-.15,2.63,0,3.91s-.17,2.68.06,4c.06.33,0,.46-.37.47a5,5,0,0,1-1.38,0,13.23,13.23,0,0,0-3.26-.28c-.64,0-.61,0-.74-.66a7.58,7.58,0,0,1,0-2.23c.07-.84,0-1.69,0-2.53,0-1.41,0-2.81-.05-4.22,0-1.09-.12-2.18-.12-3.27,0-.81.09-1.62.12-2.43,0-.59,0-1.18,0-1.77,0-1.69-.06-3.38-.12-5.06C.8,9.35.71,7.5.64,5.67c0-.22,0-.44,0-.66C.7,4,.78,3.08.85,2.11c0-.62.07-.69.71-.72s1.25,0,1.87,0v0c.72,0,1.44,0,2.15,0,.56,0,.66.17.58.71a7.84,7.84,0,0,0,.11,2.51,9.2,9.2,0,0,1,0,2C6.18,7.31,6,8.09,6,8.86c0,1.09.08,2.19.15,3.28a4.41,4.41,0,0,0,.19,1c.08.28.32.31.47.07A9.89,9.89,0,0,1,10.68,10a7.18,7.18,0,0,1,2.42-.68,15.18,15.18,0,0,1,2.7-.09c.63,0,1.24.11,1.86.18a1.65,1.65,0,0,1,.45.11,6.75,6.75,0,0,1,4.22,3.85c.08.23.24.44.33.66.18.47.38.94,0,1.42a.86.86,0,0,0-.13.52c.12,1,.26,2,.4,3,0,.43.12.86.15,1.3.09,1.21.22,2.43.23,3.64a32.42,32.42,0,0,1-.05,4.18,11,11,0,0,0,.11,2.14c.07.87.17,1.73.22,2.6C23.61,33.4,23.55,33.48,23,33.49Z"/><path class="cls-1" d="M51.93,26.51c-1.21.12-2.41.32-3.62.43a4.2,4.2,0,0,1-2.11-.12.67.67,0,0,0-.89.3c-.1.15-.15.35-.26.49a3.42,3.42,0,0,1-2.88,1.62,19.14,19.14,0,0,1-3.62-.35,4.39,4.39,0,0,1-2.88-2,6.4,6.4,0,0,1-.9-2c-.14-.71-.18-.74.49-.89a5.25,5.25,0,0,1,.55-.09,62.17,62.17,0,0,1,11.25-.09c.87.11,1.75.15,2.62.18a14.82,14.82,0,0,0,1.49,0c.64,0,1.19,0,1.42.74,0,.06.07.14.12.14a3.08,3.08,0,0,0,.43,0c0-.1,0-.24,0-.31-.24-.29-.36-.53-.07-.9.13-.17.07-.52,0-.79a4.46,4.46,0,0,1-.24-1,21.86,21.86,0,0,0-.52-4.27,8.27,8.27,0,0,0-.63-2.25,9.91,9.91,0,0,0-2.53-3.43,13.58,13.58,0,0,0-1.8-1.62,9.52,9.52,0,0,0-4.06-1.34c-.69,0-1.37-.19-2.05-.22a19.85,19.85,0,0,0-3.18,0,21.37,21.37,0,0,0-3,.79,3.66,3.66,0,0,0-.68.29c-.79.43-1.57.89-2.36,1.33a5.28,5.28,0,0,0-2.22,2.07q-.66,1.23-1.29,2.49a3.17,3.17,0,0,0-.19.72c-.21.87-.43,1.75-.62,2.63a5.27,5.27,0,0,0-.1,1.19c0,.91.13,1.81.15,2.71,0,.74-.13,1.49-.11,2.23s.19,1.62.28,2.42a2.06,2.06,0,0,0,.76,1.55,1.7,1.7,0,0,1,.4.62,6.73,6.73,0,0,0,2.22,2.71A18.63,18.63,0,0,0,32.9,33.6a8.53,8.53,0,0,0,3,.95c.65.05,1.3.15,1.95.24,1.18.16,2.35.35,3.31.5A19.43,19.43,0,0,0,43.46,35a15.31,15.31,0,0,0,4-1.31c.53-.3,1.1-.57,1.61-.92a9.21,9.21,0,0,0,4-4.93C53.3,26.93,52.9,26.4,51.93,26.51Zm-.71,2.9c-.48.57-.91,1.2-1.43,1.74A11.16,11.16,0,0,1,47,33a14.2,14.2,0,0,1-3.62,1.23,9.76,9.76,0,0,1-3,.16,47.06,47.06,0,0,1-5-.73,4.68,4.68,0,0,1-2.5-1.2,10.11,10.11,0,0,0-.88-.71,5.77,5.77,0,0,1-1.63-1.9c-.3-.58-.76-1.06-1.1-1.62a3.4,3.4,0,0,1-.32-1c-.11-.52-.18-1.05-.28-1.57a6.72,6.72,0,0,1,0-2.41,7.55,7.55,0,0,0,0-2.88,3.12,3.12,0,0,1,0-1.29c.26-1.12.56-2.23.92-3.32a7.07,7.07,0,0,1,1.79-2.93,9.52,9.52,0,0,1,3.57-2.29c.44-.15.88-.32,1.33-.44a11.71,11.71,0,0,1,5.16-.47c.86.15,1.75.09,2.61.26a6.23,6.23,0,0,1,3.64,1.89,5.86,5.86,0,0,0,.68.64,9.19,9.19,0,0,1,2.32,3,10.74,10.74,0,0,1,1,3.6c.18,1.19.25,2.4.36,3.61,0,.43-.05.57-.51.59-.63,0-1.25,0-1.88,0v.05c-.91-.08-1.81-.13-2.7-.25a57.91,57.91,0,0,0-7.68-.13,31.67,31.67,0,0,1-4.57.08c-.86-.13-1.34.5-1.14,1.34A7.56,7.56,0,0,0,34,25.7a14.38,14.38,0,0,0,1.13,2,4.49,4.49,0,0,0,2.65,1.81,15.14,15.14,0,0,0,3.14.52,27.25,27.25,0,0,0,3.71-.28,1.65,1.65,0,0,0,1.27-1.14,2.89,2.89,0,0,1,.24-.6.68.68,0,0,1,.44-.26c1.3-.13,2.6-.24,3.91-.35.25,0,.5-.07.75-.07.42,0,.58.17.54.56A2.72,2.72,0,0,1,51.22,29.41Z"/><path class="cls-1" d="M34.61,23a31.67,31.67,0,0,0,4.57-.08,57.91,57.91,0,0,1,7.68.13c.89.12,1.79.17,2.7.25V23.2c.63,0,1.25,0,1.88,0,.46,0,.55-.16.51-.59-.11-1.21-.18-2.42-.36-3.61a10.74,10.74,0,0,0-1-3.6,9.19,9.19,0,0,0-2.32-3,5.86,5.86,0,0,1-.68-.64A6.23,6.23,0,0,0,44,9.85c-.86-.17-1.75-.11-2.61-.26a11.71,11.71,0,0,0-5.16.47c-.45.12-.89.29-1.33.44a9.52,9.52,0,0,0-3.57,2.29,7.07,7.07,0,0,0-1.79,2.93c-.36,1.09-.66,2.2-.92,3.32a3.12,3.12,0,0,0,0,1.29,7.55,7.55,0,0,1,0,2.88,6.72,6.72,0,0,0,0,2.41c.1.52.17,1.05.28,1.57a3.4,3.4,0,0,0,.32,1c.34.56.8,1,1.1,1.62A5.77,5.77,0,0,0,32,31.75a10.11,10.11,0,0,1,.88.71,4.68,4.68,0,0,0,2.5,1.2,47.06,47.06,0,0,0,5,.73,9.76,9.76,0,0,0,3-.16A14.2,14.2,0,0,0,47,33a11.16,11.16,0,0,0,2.8-1.85c.52-.54,1-1.17,1.43-1.74a2.72,2.72,0,0,0,.51-1.48c0-.39-.12-.56-.54-.56-.25,0-.5.05-.75.07-1.31.11-2.61.22-3.91.35a.68.68,0,0,0-.44.26,2.89,2.89,0,0,0-.24.6,1.65,1.65,0,0,1-1.27,1.14,27.25,27.25,0,0,1-3.71.28,15.14,15.14,0,0,1-3.14-.52,4.49,4.49,0,0,1-2.65-1.81,14.38,14.38,0,0,1-1.13-2,7.56,7.56,0,0,1-.48-1.41C33.27,23.45,33.75,22.82,34.61,23Zm-.45-3.88a4.65,4.65,0,0,1,.61-1.74,8.69,8.69,0,0,0,.89-1.54,5.15,5.15,0,0,1,2.41-2.25,3.44,3.44,0,0,1,1.18-.16,0,0,0,0,1,0,0c.68,0,1.36,0,2,0a3.85,3.85,0,0,1,2.86,1.37,7.5,7.5,0,0,1,2,3.13,3.19,3.19,0,0,0,.44.81c.27.41.4,1,.2,1.19a.79.79,0,0,1-1.09.18.79.79,0,0,0-.44,0l-2.69.27a7.78,7.78,0,0,1-2-.12c-1-.15-2-.12-3-.19s-1.91-.19-2.87-.25A.51.51,0,0,1,34.16,19.07Z"/><path class="cls-1" d="M106,18.47a9.64,9.64,0,0,0-.2-1.5.07.07,0,0,0,0,0,5.46,5.46,0,0,0-.21-.72,8.37,8.37,0,0,0-.43-1.08c-.1-.22-.21-.43-.31-.65l-.61-1.16c-.09-.18-.19-.34-.29-.5a5.1,5.1,0,0,0-.51-.62,5.8,5.8,0,0,0-.63-.59l-.59-.52c-.15-.14-.3-.28-.45-.44l-.26-.26a8.85,8.85,0,0,0-1.19-1c-.2-.14-.4-.26-.61-.38a7.84,7.84,0,0,0-2.35-.84l-.49-.08C96.15,8,95.39,8,94.64,8c-.36,0-.72,0-1.08,0L93,8c-1.14.11-2.28.38-3.42.41a6.74,6.74,0,0,0-2.89,1.11l-.13.07a8.89,8.89,0,0,0-1.41,1l-.08.07c-.61.46-1.13,1.05-1.8,1.46,0,0-.06.08-.09.12l0,0a6.25,6.25,0,0,0-.54.73,10.7,10.7,0,0,0-1,1.93l0,.07h0c-.12.3-.22.59-.31.9h0c0,.22-.11.43-.16.65s-.1.51-.14.77c-.08.52-.14,1.06-.18,1.59a.49.49,0,0,1,0,.12c0,.23,0,.44,0,.67s-.07.74-.12,1.12l0,.36c0,.15,0,.29,0,.44a7.69,7.69,0,0,0,0,1.35c0,.24,0,.47,0,.7a7,7,0,0,0,.92,2.65c.17.3.35.6.5.91a5.65,5.65,0,0,1,.29.67l.09.28c0,.15.08.3.13.44a3.51,3.51,0,0,0,.27.66,1.77,1.77,0,0,0,.15.31,3.67,3.67,0,0,0,.36.6,2.18,2.18,0,0,0,.26.36,7,7,0,0,0,.51.58,7.6,7.6,0,0,0,.85.75q.38.28.78.54l.07,0,1.29.81.54.33.24.13a4.21,4.21,0,0,0,.85.37c.49.14,1,.19,1.48.37a2.23,2.23,0,0,1,.65.37l.05,0A.39.39,0,0,0,91,35a14.06,14.06,0,0,0,2.34,0,53.58,53.58,0,0,0,6.52-1.26,2.75,2.75,0,0,0,.45-.17,2.47,2.47,0,0,0,.74-.52l.13-.14a23.49,23.49,0,0,0,1.52-1.81h0c.15-.18.28-.36.41-.54.27-.38.53-.76.77-1.16h0l.36-.61c.1-.18.21-.37.31-.57s.14-.25.2-.38.28-.49.4-.74a5.4,5.4,0,0,0,.31-.79,3.46,3.46,0,0,0,.12-.67l.06-.88.09-1.3c0-.22,0-.44,0-.66s0-.6.07-.9h0l0-.44c0-.26,0-.52.07-.77l0-.57a6.79,6.79,0,0,0,0-.9C106,18.94,106,18.71,106,18.47Zm-1,3.07h0c0,.45,0,.89,0,1.34v.62c0,.13,0,.26,0,.39a5.86,5.86,0,0,1-.06.94,4.5,4.5,0,0,1-.15.73.07.07,0,0,1,0,.06,4.56,4.56,0,0,1-.26.79,6.27,6.27,0,0,1-.41.82,5.58,5.58,0,0,1-.32.52l-.12.19c-.22.32-.42.66-.62,1h0c-.12.2-.24.4-.37.6s-.33.53-.52.79-.2.27-.32.4h0l-.44.51-.85.89a1.25,1.25,0,0,1-.56.32,20.05,20.05,0,0,1-3.34.8c-.77.08-1.53.28-2.29.43L92.72,34c-.83.26-1.46-.31-2.14-.55a4.26,4.26,0,0,0-.47-.15h0a1.65,1.65,0,0,0-.59-.08A2.45,2.45,0,0,1,88.38,33a3.11,3.11,0,0,1-1-.64,2.43,2.43,0,0,0-.25-.2,2.89,2.89,0,0,0-.51-.31c-.14-.06-.28-.14-.41-.21h0a7.14,7.14,0,0,1-1.69-1.28,3.09,3.09,0,0,1-.37-.43,4.57,4.57,0,0,1-.41-.57l-.18-.3c-.1-.19-.2-.39-.29-.59a5.21,5.21,0,0,1-.2-.5c-.06-.15-.1-.3-.16-.45s-.16-.43-.25-.64a6.33,6.33,0,0,0-.58-1.13,2.42,2.42,0,0,1-.25-.4,5.32,5.32,0,0,1-.32-.69,5.93,5.93,0,0,1-.32-1.83,4.89,4.89,0,0,1,0-.54l.06-.88.06-.76c0-.42.07-.83.12-1.24s.06-.53.09-.79c.07-.54.15-1.07.25-1.61,0-.1,0-.2,0-.3s.07-.32.12-.48a7,7,0,0,1,.23-.74h0A8,8,0,0,1,84,12.72l.23-.25a7.82,7.82,0,0,1,.6-.55,16.38,16.38,0,0,1,2.47-1.77h0l.61-.37a7.11,7.11,0,0,1,3.35-.7,11.71,11.71,0,0,0,1.19-.14c.46-.07.93-.14,1.39-.17h0a6.47,6.47,0,0,1,1.58.08,12.88,12.88,0,0,1,2.69.49h0l.14.06c.23.11.46.2.7.29h0a5.84,5.84,0,0,1,1.07.51,5.39,5.39,0,0,1,.54.4c.25.21.49.45.73.68l.35.32c.16.14.27.36.44.48a2.66,2.66,0,0,1,.38.28h0a3.86,3.86,0,0,1,.63.65,8.61,8.61,0,0,1,1,1.61l.3.56a0,0,0,0,1,0,0,6.37,6.37,0,0,1,.46,1.08,5.54,5.54,0,0,1,.21.8,7.38,7.38,0,0,1,.14,1.49,6.11,6.11,0,0,1,0,.73.61.61,0,0,1,0,.14c0,.43-.08.87-.11,1.3C105.06,21,105,21.27,105,21.54Z"/><path class="cls-1" d="M62.5.47c-1.24,0-2.48.1-3.73.15a9.23,9.23,0,0,1-1.66,0c-.74-.09-.78-.14-1,.54a2.55,2.55,0,0,0-.1.91c0,.53.18,1.06.18,1.59,0,3.06,0,6.12,0,9.19,0,1-.07,1.93-.08,2.9,0,.59,0,1.18,0,1.78s-.06,1.31,0,2c.08,2,.21,4,.26,6.07s0,3.93,0,5.89h.07l-.15,2a.63.63,0,0,0,.73.73c.64-.08,1.29-.19,1.94-.26a3.81,3.81,0,0,1,1.29-.08,9.43,9.43,0,0,0,2.32-.07.52.52,0,0,0,.58-.51c0-.49.08-1,.08-1.49,0-1.62-.07-3.24-.06-4.87,0-2.44.1-4.88.12-7.32,0-4.15,0-8.32.06-12.48,0-.9,0-1.81.06-2.71a11.52,11.52,0,0,1,.07-3C63.58,1,63,.46,62.5.47Zm0,1.83a9.33,9.33,0,0,0,0,1.29c0,1.52,0,3.05,0,4.57,0,1.75-.11,3.49-.13,5.23,0,.81.06,1.62.09,2.42,0,.16,0,.31,0,.47,0,1.25,0,2.49,0,3.74a21.3,21.3,0,0,1-.16,2.88,27.46,27.46,0,0,0,0,3.27c0,1.6.06,3.19.08,4.78a4,4,0,0,1-.11.84c-.15.93-.22,1.08-1.1.94a16.8,16.8,0,0,0-2.85.32,4.85,4.85,0,0,0-.75.11c-.37.05-.5-.14-.5-.49v-5.9h.11c-.14-2.43-.29-4.87-.42-7.3,0-.4,0-.81,0-1.21,0-1.6,0-3.19.06-4.78,0-2.15.08-4.3.08-6.46,0-1.46-.08-2.93-.12-4.39,0-.6.11-.84.72-1a7,7,0,0,1,1.38-.15c.7-.05,1.41-.08,2.12-.11a6.26,6.26,0,0,1,.75,0C62.59,1.43,62.6,1.49,62.5,2.3Z"/><path class="cls-1" d="M62.53,3.59c0,1.52,0,3.05,0,4.57,0,1.75-.11,3.49-.13,5.23,0,.81.06,1.62.09,2.42,0,.16,0,.31,0,.47,0,1.25,0,2.49,0,3.74a21.3,21.3,0,0,1-.16,2.88,27.46,27.46,0,0,0,0,3.27c0,1.6.06,3.19.08,4.78a4,4,0,0,1-.11.84c-.15.93-.22,1.08-1.1.94a16.8,16.8,0,0,0-2.85.32,4.85,4.85,0,0,0-.75.11c-.37.05-.5-.14-.5-.49v-5.9h.11c-.14-2.43-.29-4.87-.42-7.3,0-.4,0-.81,0-1.21,0-1.6,0-3.19.06-4.78,0-2.15.08-4.3.08-6.46,0-1.46-.08-2.93-.12-4.39,0-.6.11-.84.72-1a7,7,0,0,1,1.38-.15c.7-.05,1.41-.08,2.12-.11a6.26,6.26,0,0,1,.75,0c.79.06.8.12.7.93A9.33,9.33,0,0,0,62.53,3.59Z"/><path class="cls-1" d="M76.64,32.78c-.12-.05-.19-.28-.2-.44q-.16-2.06-.3-4.11c0-.28,0-.56,0-.84,0-1.63-.07-3.25-.1-4.88,0-.47,0-.94,0-1.4,0-2.22.07-4.44.09-6.66,0-2,0-4,0-6,0-1.16.12-2.31.19-3.46h0c0-.25,0-.51,0-.76a12.55,12.55,0,0,0-.45-3.4C75.54.11,75.43.05,74.7.16A13.51,13.51,0,0,1,73,.39c-.91,0-1.81,0-2.71,0H70c-.5.09-.61.25-.58.76.12,1.52.23,3.05.34,4.57,0,.4,0,.8,0,1.21A20.32,20.32,0,0,1,69.87,9a50.84,50.84,0,0,0-.23,7,1.27,1.27,0,0,1,0,.28,29.23,29.23,0,0,0-.11,4.86,9.72,9.72,0,0,1,0,2.9,2.7,2.7,0,0,0,0,.56c.06,1.43.15,2.85.14,4.29s-.13,2.79-.19,4.19a.94.94,0,0,0,1,1c.75,0,1.49,0,2.24,0l3.54-.08c.41,0,.49-.33.59-.63S76.88,32.9,76.64,32.78Zm-1.81-.23c-.9.08-1.79.18-2.69.27a.38.38,0,0,0,0-.1c-.44,0-.87.07-1.3.08s-.55-.1-.54-.55c0-.84.06-1.68.07-2.52,0-1.83,0-3.68,0-5.51s-.09-3.44-.11-5.15c0-.53,0-1.07,0-1.6,0-.84,0-1.68,0-2.52,0-1.22.07-2.43.14-3.64a20.47,20.47,0,0,0,.06-4.76A26.22,26.22,0,0,1,70.38,3c0-.43-.06-.87-.07-1.31,0-.22,0-.42.36-.42,1.3,0,2.59,0,3.89-.06.51,0,.69.12.74.6a15.81,15.81,0,0,1,.14,2.05c0,3-.09,6-.15,9-.05,2.46-.13,4.9-.15,7.36,0,1.09.14,2.18.21,3.26a4.71,4.71,0,0,1,0,.75,54.82,54.82,0,0,0,.26,6.9c0,.16,0,.31,0,.47C75.69,32.73,75.59,32.5,74.83,32.55Z"/><path class="cls-1" d="M74.83,32.55c-.9.08-1.79.18-2.69.27a.38.38,0,0,0,0-.1c-.44,0-.87.07-1.3.08s-.55-.1-.54-.55c0-.84.06-1.68.07-2.52,0-1.83,0-3.68,0-5.51s-.09-3.44-.11-5.15c0-.53,0-1.07,0-1.6,0-.84,0-1.68,0-2.52,0-1.22.07-2.43.14-3.64a20.47,20.47,0,0,0,.06-4.76A26.22,26.22,0,0,1,70.38,3c0-.43-.06-.87-.07-1.31,0-.22,0-.42.36-.42,1.3,0,2.59,0,3.89-.06.51,0,.69.12.74.6a15.81,15.81,0,0,1,.14,2.05c0,3-.09,6-.15,9-.05,2.46-.13,4.9-.15,7.36,0,1.09.14,2.18.21,3.26a4.71,4.71,0,0,1,0,.75,54.82,54.82,0,0,0,.26,6.9c0,.16,0,.31,0,.47C75.69,32.73,75.59,32.5,74.83,32.55Z"/><path class="cls-1" d="M46.59,18.72a3.19,3.19,0,0,1-.44-.81,7.5,7.5,0,0,0-2-3.13,3.85,3.85,0,0,0-2.86-1.37c-.68,0-1.36,0-2,0a0,0,0,0,0,0,0,3.44,3.44,0,0,0-1.18.16,5.15,5.15,0,0,0-2.41,2.25,8.69,8.69,0,0,1-.89,1.54,4.65,4.65,0,0,0-.61,1.74.51.51,0,0,0,.52.7c1,.06,1.91.19,2.87.25s2,0,3,.19a7.78,7.78,0,0,0,2,.12l2.69-.27a.79.79,0,0,1,.44,0,.79.79,0,0,0,1.09-.18C47,19.69,46.86,19.13,46.59,18.72Zm-1.5.5a9.91,9.91,0,0,1-3.87.28c-.93-.08-1.86-.08-2.8-.13s-1.61-.07-2.42-.12c-.58,0-.78-.33-.58-.89A9,9,0,0,1,36,17.19c.38-.68.76-1.36,1.18-2a1.59,1.59,0,0,1,1.23-.76c.74-.09,1.48-.17,2.23-.24a2.94,2.94,0,0,1,2.55,1,9.35,9.35,0,0,1,1.16,1.55c.38.63.69,1.31,1,2C45.5,19,45.41,19.13,45.09,19.22Z"/><path class="cls-1" d="M265.63,33a6.82,6.82,0,0,1-.9-.88c-.67-1.1-1.24-2.25-1.9-3.34-.86-1.41-1.74-2.82-2.67-4.18s-1.94-2.68-2.91-4a7.27,7.27,0,0,1-.62-.94,1.16,1.16,0,0,1,.15-1.4l1.3-1.35c.42-.45.86-.89,1.28-1.36a12.06,12.06,0,0,1,2.93-2.86l.23-.17L265.61,10a.37.37,0,0,0,.14-.23,1.87,1.87,0,0,0-.07-.71c-.13-.27-.4-.2-.66-.15a4.59,4.59,0,0,1-1.65.24,8.09,8.09,0,0,0-2.14-.06,30.73,30.73,0,0,1-3.15.29,1.47,1.47,0,0,0-1.58,1,7.62,7.62,0,0,1-1.31,1.91c-.51.58-1.06,1.14-1.62,1.67A19.21,19.21,0,0,0,251,16.36a7.44,7.44,0,0,1-1,1.06.52.52,0,0,1-.4.16c-.08,0-.16-.24-.17-.37,0-1.47-.15-2.94-.07-4.4a43.94,43.94,0,0,0,0-4.87,31.23,31.23,0,0,1,.33-6.55c.11-.64-.16-.88-.84-.84a16.14,16.14,0,0,1-2.6,0,6,6,0,0,0-2.56.08s-.06,0-.09,0a.66.66,0,0,0-.65.75l0,2.52h.06c0,.63,0,1.25,0,1.87,0,2.25.1,4.5.11,6.74,0,1.88-.07,3.75-.07,5.62s.05,3.51.07,5.26c0,1.12,0,2.25,0,3.37,0,.9-.11,1.8-.11,2.7,0,1.32,0,2.63.11,3.93a1,1,0,0,0,.29.73.62.62,0,0,0,.85-.11,1.81,1.81,0,0,1,1.47-.45c1,.06,2,.11,3,.1s1.12-.23,1.09-1.17c-.05-1.53-.06-3.06-.07-4.59a.91.91,0,0,1,.26-.76.86.86,0,0,0,.18-1.18.37.37,0,0,1,0-.34c.42-.46.84-.92,1.3-1.34a.44.44,0,0,1,.72.12c.29.44.56.9.82,1.36.56,1,1.06,2.06,1.69,3,.83,1.29,1.76,2.5,2.63,3.75.24.34.61.64.39,1.18-.12.27.08.49.38.51a6.65,6.65,0,0,0,.89,0c.26,0,.5,0,.75,0l5.14-.09a2.29,2.29,0,0,0,.72-.17C266.09,33.71,266.12,33.52,265.63,33Zm-2.44.31c-.31,0-.62,0-.93,0-1,0-2,0-3.07,0a.8.8,0,0,1-.51-.32c-.71-.92-1.39-1.84-2.06-2.78a19.91,19.91,0,0,1-2.13-3.41,28.64,28.64,0,0,0-2-3.35c-.41-.64-.81-.69-1.35-.15-.72.72-1.42,1.47-2.12,2.21a.85.85,0,0,0-.27.75,44.22,44.22,0,0,1,.12,5.87c0,.52-.25.72-.76.74a7,7,0,0,1-.92-.06,4.9,4.9,0,0,0-2.22.06.87.87,0,0,1-.28,0c-.63,0-.79-.12-.79-.71,0-1.25,0-2.5,0-3.75h0a29.14,29.14,0,0,0,0-3.37c-.23-2.06,0-4.12-.2-6.17-.08-1.08.05-2.18.07-3.27,0-.56,0-1.12,0-1.68,0-2.43.08-4.88,0-7.31-.05-1.38.11-2.74.13-4.11,0-.93.36-1.22,1.26-1.2,1.09,0,2.17.07,3.25.13.35,0,.36.3.34.56-.06.87-.16,1.74-.16,2.6,0,1.37.1,2.74.09,4.11,0,2-.07,3.93-.12,5.89a2.11,2.11,0,0,0,0,.56,10.53,10.53,0,0,1,0,3.17,3.43,3.43,0,0,0,.09,1c0,.15.25.28.4.33s.27-.15.33-.27a5.68,5.68,0,0,1,1.55-1.93c.53-.44.92-1,1.41-1.5.88-.84,1.83-1.61,2.68-2.48s1.57-1.76,2.33-2.65c.07-.08,0-.23.07-.34a.69.69,0,0,1,.84-.5.68.68,0,0,0,.77-.12s.13-.09.17-.07c.66.31,1.32-.13,2,0a12.28,12.28,0,0,0,1.92,0,1.75,1.75,0,0,1,.46,0c.33.09.41.37.16.63a8,8,0,0,1-.64.54c-.32.26-.63.5-1,.74s-.5.35-.75.53a3.13,3.13,0,0,0-.5.4c-.31.34-.59.72-.91,1.06l-3.34,3.53c-.34.36-.69.72-1,1.1a.75.75,0,0,0-.09,1.09,11.41,11.41,0,0,0,1,1.36,18.82,18.82,0,0,0,2.11,2.61,2.78,2.78,0,0,1,.68,1,16,16,0,0,0,2.23,3.67,1.25,1.25,0,0,1,.24.4,23.75,23.75,0,0,0,2,3.79,6.23,6.23,0,0,1,.33.85C263.84,33.21,263.52,33.3,263.19,33.34Z"/><path class="cls-1" d="M264.17,33.14c-.33.07-.65.16-1,.2s-.62,0-.93,0c-1,0-2,0-3.07,0a.8.8,0,0,1-.51-.32c-.71-.92-1.39-1.84-2.06-2.78a19.91,19.91,0,0,1-2.13-3.41,28.64,28.64,0,0,0-2-3.35c-.41-.64-.81-.69-1.35-.15-.72.72-1.42,1.47-2.12,2.21a.85.85,0,0,0-.27.75,44.22,44.22,0,0,1,.12,5.87c0,.52-.25.72-.76.74a7,7,0,0,1-.92-.06,4.9,4.9,0,0,0-2.22.06.87.87,0,0,1-.28,0c-.63,0-.79-.12-.79-.71,0-1.25,0-2.5,0-3.75h0a29.14,29.14,0,0,0,0-3.37c-.23-2.06,0-4.12-.2-6.17-.08-1.08.05-2.18.07-3.27,0-.56,0-1.12,0-1.68,0-2.43.08-4.88,0-7.31-.05-1.38.11-2.74.13-4.11,0-.93.36-1.22,1.26-1.2,1.09,0,2.17.07,3.25.13.35,0,.36.3.34.56-.06.87-.16,1.74-.16,2.6,0,1.37.1,2.74.09,4.11,0,2-.07,3.93-.12,5.89a2.11,2.11,0,0,0,0,.56,10.53,10.53,0,0,1,0,3.17,3.43,3.43,0,0,0,.09,1c0,.15.25.28.4.33s.27-.15.33-.27a5.68,5.68,0,0,1,1.55-1.93c.53-.44.92-1,1.41-1.5.88-.84,1.83-1.61,2.68-2.48s1.57-1.76,2.33-2.65c.07-.08,0-.23.07-.34a.69.69,0,0,1,.84-.5.68.68,0,0,0,.77-.12s.13-.09.17-.07c.66.31,1.32-.13,2,0a12.28,12.28,0,0,0,1.92,0,1.75,1.75,0,0,1,.46,0c.33.09.41.37.16.63a8,8,0,0,1-.64.54c-.32.26-.63.5-1,.74s-.5.35-.75.53a3.13,3.13,0,0,0-.5.4c-.31.34-.59.72-.91,1.06l-3.34,3.53c-.34.36-.69.72-1,1.1a.75.75,0,0,0-.09,1.09,11.41,11.41,0,0,0,1,1.36,18.82,18.82,0,0,0,2.11,2.61,2.78,2.78,0,0,1,.68,1,16,16,0,0,0,2.23,3.67,1.25,1.25,0,0,1,.24.4,23.75,23.75,0,0,0,2,3.79A6.23,6.23,0,0,1,264.17,33.14Z"/><path class="cls-1" d="M180.5,23a1.32,1.32,0,0,1-.18-.6c0-1.18,0-2.38-.14-3.56a4.31,4.31,0,0,0-.36-1.72c-.76-1.43-1.61-2.82-2.47-4.19a3.85,3.85,0,0,0-1.55-1.47c-.33-.17-.63-.4-1-.55-1.22-.53-2.46-1-3.69-1.55a.94.94,0,0,0-.28-.06c-1-.09-1.93-.22-2.89-.27a7.23,7.23,0,0,0-1.68.1,21.91,21.91,0,0,0-5.07,1.63,6.33,6.33,0,0,0-2.8,2.42A27.45,27.45,0,0,0,156.21,17a1.16,1.16,0,0,1-.2.32,3.12,3.12,0,0,0-.76,2.07c0,.94,0,1.87,0,2.81h0c0,.87,0,1.75,0,2.63a3,3,0,0,0,.38,1.51,4.39,4.39,0,0,1,.36,1.25,6.85,6.85,0,0,0,.23,1.47c.54,1.16,1.18,2.27,1.79,3.39a1.32,1.32,0,0,0,.45.46c.74.46,1.48.93,2.25,1.33a8.47,8.47,0,0,0,2.05.9c1.79.4,3.6.68,5.41,1a5.66,5.66,0,0,0,1.57.18,10.73,10.73,0,0,0,3.61-1c.42-.21.84-.44,1.27-.61a6.84,6.84,0,0,0,3.63-3.23c.54-1,1-2.05,1.54-3.09.34-.69.15-1-.61-1.19a2,2,0,0,0-.55,0l-4.65.09a1,1,0,0,0-.93.63,3.76,3.76,0,0,1-1.11,1.44,8,8,0,0,1-5.06,1.34,4.06,4.06,0,0,1-3-1.74,23.12,23.12,0,0,1-1.67-2.91,2.51,2.51,0,0,1-.16-1c0-.24.16-.37.44-.37l2.14-.07c1.15,0,2.31-.06,3.46-.14,1.4-.09,2.79-.27,4.19-.37s2.79-.18,4.19-.23a2.41,2.41,0,0,1,1.1.15,8.15,8.15,0,0,0,2.41.17c.23,0,.57-.31.76-.56S180.65,23.23,180.5,23Zm-1.66.26-2.23-.3a1,1,0,0,0-.45,0,9.07,9.07,0,0,1-2.89.21,26.55,26.55,0,0,0-4.08.36c-.67.12-1.38,0-2,.16-1.27.27-2.55-.09-3.81.08a8.25,8.25,0,0,1-1.11.05A1.11,1.11,0,0,0,161,24.92a3,3,0,0,0,.42,1.8c.54,1,1.19,2,1.74,3.09a3.64,3.64,0,0,0,2.19,1.59,6.93,6.93,0,0,0,2.67.28,5.87,5.87,0,0,0,3.58-.82,5.36,5.36,0,0,0,2-2.17.56.56,0,0,1,.56-.4c.37,0,.74,0,1.1,0,.65,0,1.3-.06,2-.07a4.74,4.74,0,0,1,.84.05c.54.07.63.2.45.74A6.06,6.06,0,0,1,178,30.1c-.46.78-.92,1.57-1.43,2.31-.74,1.09-2,1.47-3.08,2-.52.27-1.1.43-1.64.65a5.38,5.38,0,0,1-2.86.29,22.46,22.46,0,0,1-4.15-.68,12.68,12.68,0,0,1-2.26-.57c-1.08-.54-2.2-1-3.24-1.65a3.76,3.76,0,0,1-1-1.1,8,8,0,0,1-1.52-3.78,17.58,17.58,0,0,0-.52-2.37,4.5,4.5,0,0,1-.09-1.37c0-.84-.1-1.68,0-2.51a29.68,29.68,0,0,1,.36-3.13,3,3,0,0,1,.47-.91c.73-1.27,1.4-2.59,2.23-3.79A5.91,5.91,0,0,1,161,11.86a14.19,14.19,0,0,1,4-1.69,14,14,0,0,1,4.52-.39,13.4,13.4,0,0,1,6,2.48,4.84,4.84,0,0,1,1.58,1.79c.27.46.59.89.89,1.32a6.93,6.93,0,0,1,1.28,3.85c0,.31,0,.62,0,.92.19.86-.2,1.74.08,2.61C179.55,23.19,179.34,23.36,178.84,23.29Z"/><path class="cls-1" d="M179.4,22.75c-.28-.87.11-1.75-.08-2.61,0-.3,0-.61,0-.92A6.93,6.93,0,0,0,178,15.37c-.3-.43-.62-.86-.89-1.32a4.84,4.84,0,0,0-1.58-1.79,13.4,13.4,0,0,0-6-2.48,14,14,0,0,0-4.52.39,14.19,14.19,0,0,0-4,1.69,5.91,5.91,0,0,0-1.77,1.64c-.83,1.2-1.5,2.52-2.23,3.79a3,3,0,0,0-.47.91,29.68,29.68,0,0,0-.36,3.13c-.05.83.07,1.67,0,2.51a4.5,4.5,0,0,0,.09,1.37,17.58,17.58,0,0,1,.52,2.37,8,8,0,0,0,1.52,3.78,3.76,3.76,0,0,0,1,1.1c1,.61,2.16,1.11,3.24,1.65a12.68,12.68,0,0,0,2.26.57,22.46,22.46,0,0,0,4.15.68,5.38,5.38,0,0,0,2.86-.29c.54-.22,1.12-.38,1.64-.65,1.11-.54,2.34-.92,3.08-2,.51-.74,1-1.53,1.43-2.31A6.06,6.06,0,0,0,178.5,29c.18-.54.09-.67-.45-.74a4.74,4.74,0,0,0-.84-.05c-.65,0-1.3.05-2,.07-.36,0-.73,0-1.1,0a.56.56,0,0,0-.56.4,5.36,5.36,0,0,1-2,2.17,5.87,5.87,0,0,1-3.58.82,6.93,6.93,0,0,1-2.67-.28,3.64,3.64,0,0,1-2.19-1.59c-.55-1-1.2-2-1.74-3.09a3,3,0,0,1-.42-1.8,1.11,1.11,0,0,1,1.23-1.06,8.25,8.25,0,0,0,1.11-.05c1.26-.17,2.54.19,3.81-.08.66-.14,1.37,0,2-.16a26.55,26.55,0,0,1,4.08-.36,9.07,9.07,0,0,0,2.89-.21,1,1,0,0,1,.45,0l2.23.3C179.34,23.36,179.55,23.19,179.4,22.75Zm-5.83-2.12a.65.65,0,0,1-.51.07,3.78,3.78,0,0,0-2-.09,15.7,15.7,0,0,1-1.94.16c-2.09.06-4.18.09-6.27.14h-.38c-.36,0-.59-.12-.62-.53,0-.25-.09-.49-.13-.74l.15-.54a6.6,6.6,0,0,1,2.57-3.68,5,5,0,0,1,3.16-1,5.63,5.63,0,0,0,1.3,0,4.6,4.6,0,0,1,3.51,1,.43.43,0,0,1,.2.2,25,25,0,0,1,1.48,3.7A1.35,1.35,0,0,1,173.57,20.63Z"/><path class="cls-1" d="M206.7,33.54c-.17-.69-.37-1.38-.51-2.08a5.15,5.15,0,0,1-.09-1.11c0-1,.07-2.06.11-3.08,0-.35,0-.69.06-1,0-.8.14-1.61.17-2.42.05-1.72.07-3.43.1-5.15a1.27,1.27,0,0,1,0-.28,22.8,22.8,0,0,0,.26-5.41c0-.37,0-.74,0-1.11-.05-.56-.17-1.11-.2-1.67a17.1,17.1,0,0,1-.23-2.95,1.48,1.48,0,0,0-.08-.46,13.44,13.44,0,0,1,.19-4.56,5.43,5.43,0,0,0,.14-1.39c0-.24-.22-.45-.44-.28-.58.42-1.27.24-1.89.46a2.92,2.92,0,0,1-1,0c-.31,0-.62,0-.92-.06-.83-.1-1.66.42-2.49,0a.56.56,0,0,0-.24.32c-.06.46-.08.93-.11,1.39a21.26,21.26,0,0,0-.2,3.17A24.87,24.87,0,0,1,199,11.2c0,.21-.2.31-.3.14a5.33,5.33,0,0,0-2.06-1.43A13,13,0,0,0,194.82,9a13.66,13.66,0,0,0-2-.59,2.6,2.6,0,0,0-1.38.11c-.81.29-1.58.7-2.37,1a8.09,8.09,0,0,0-3.88,3.21,5,5,0,0,1-.69.89A6.41,6.41,0,0,0,183,16.42a25.21,25.21,0,0,0-1,7c0,.5,0,1,0,1.5a13.75,13.75,0,0,0,.8,4.31c.2.61.75,1.08.73,1.79,0,.14.21.29.35.41a32,32,0,0,0,3.4,2.62,7.09,7.09,0,0,0,3.24,1.11,11.22,11.22,0,0,1,1.31.09,7.39,7.39,0,0,0,3.79-.21,8.37,8.37,0,0,0,3.08-1.69c.28-.23.57-.67.94-.47s.2.68.09,1.08a.71.71,0,0,0,.83,1,2.36,2.36,0,0,0,.46-.1,8.67,8.67,0,0,1,4.17-.37,2.71,2.71,0,0,0,1-.11C206.71,34.25,206.81,34,206.7,33.54Zm-.76-14.17a18.83,18.83,0,0,1-.19,3.89,41.82,41.82,0,0,0-.41,5.47c0,.66.14,1.3.2,2,.08.86.13,1.73.19,2.6,0,.28-.19.45-.41.39-1.25-.34-2.47.1-3.7.13-.1,0-.19,0-.28,0-.24,0-.41-.13-.37-.42.06-.5.12-1,.16-1.5a5.66,5.66,0,0,0,0-.92c0-.41-.26-.59-.67-.63a.7.7,0,0,0-.83.46c-.32,1.32-1.45,1.89-2.37,2.65a8,8,0,0,1-3.83,1.3,5,5,0,0,1-1.66-.15c-.95-.15-1.9-.3-2.85-.51a3.47,3.47,0,0,1-1-.53c-.93-.62-1.86-1.22-2.77-1.87a4.68,4.68,0,0,1-1.45-2.13,12.87,12.87,0,0,1-1.17-5.17c0-1.55.26-3.1.37-4.65a16,16,0,0,1,.7-3.57,4.06,4.06,0,0,1,.33-.77,16.49,16.49,0,0,1,2.78-3.64,11.09,11.09,0,0,1,2.09-1.37,9.56,9.56,0,0,1,1.76-.86,4,4,0,0,1,1.67-.41c.28,0,.4.07.41.35s.27.41.51.26c.65-.38,1.11-.1,1.58.34a5.12,5.12,0,0,0,.84.56c.67.4,1.34.81,2,1.17a1.33,1.33,0,0,1,.71.8,1.83,1.83,0,0,0,.41.7c.38.43.67.42,1,0a1.94,1.94,0,0,0,.25-.77,8.85,8.85,0,0,0,0-1h0c.08-1.49.17-3,.25-4.46a2.69,2.69,0,0,0,0-.75c-.38-1.34,0-2.65.12-4a.61.61,0,0,1,.7-.67h2.34l1.87,0c.33,0,.55.06.51.53a30.69,30.69,0,0,0-.06,5.59c-.32,1.17.29,2.26.3,3.4,0,.71,0,1.42.06,2.13C206.27,15.34,205.76,17.33,205.94,19.37Z"/><path class="cls-1" d="M205.94,19.37c-.18-2,.33-4,.16-6.06-.06-.71-.06-1.42-.06-2.13,0-1.14-.62-2.23-.3-3.4a30.69,30.69,0,0,1,.06-5.59c0-.47-.18-.52-.51-.53l-1.87,0h-2.34a.61.61,0,0,0-.7.67c-.11,1.33-.5,2.64-.12,4a2.69,2.69,0,0,1,0,.75c-.08,1.48-.17,3-.25,4.46h0a8.85,8.85,0,0,1,0,1,1.94,1.94,0,0,1-.25.77c-.29.45-.58.46-1,0a1.83,1.83,0,0,1-.41-.7,1.33,1.33,0,0,0-.71-.8c-.69-.36-1.36-.77-2-1.17a5.12,5.12,0,0,1-.84-.56c-.47-.44-.93-.72-1.58-.34-.24.15-.49.12-.51-.26s-.13-.34-.41-.35a4,4,0,0,0-1.67.41,9.56,9.56,0,0,0-1.76.86,11.09,11.09,0,0,0-2.09,1.37A16.49,16.49,0,0,0,184,15.42a4.06,4.06,0,0,0-.33.77,16,16,0,0,0-.7,3.57c-.11,1.55-.33,3.1-.37,4.65a12.87,12.87,0,0,0,1.17,5.17,4.68,4.68,0,0,0,1.45,2.13c.91.65,1.84,1.25,2.77,1.87a3.47,3.47,0,0,0,1,.53c.95.21,1.9.36,2.85.51a5,5,0,0,0,1.66.15,8,8,0,0,0,3.83-1.3c.92-.76,2.05-1.33,2.37-2.65a.7.7,0,0,1,.83-.46c.41,0,.65.22.67.63a5.66,5.66,0,0,1,0,.92c0,.51-.1,1-.16,1.5,0,.29.13.38.37.42.09,0,.18,0,.28,0,1.23,0,2.45-.47,3.7-.13.22.06.42-.11.41-.39-.06-.87-.11-1.74-.19-2.6-.06-.66-.2-1.3-.2-2a41.82,41.82,0,0,1,.41-5.47A18.83,18.83,0,0,0,205.94,19.37Zm-5.8,4a4.87,4.87,0,0,0-.19,1.47,6.17,6.17,0,0,1-1.47,3.85,4.31,4.31,0,0,1-2,1.25,7.81,7.81,0,0,1-1.59.53,2.8,2.8,0,0,1-2.71-.47.44.44,0,0,0-.13-.14,4.55,4.55,0,0,1-1.29-.69c-.33-.34-.53-.78-.92-1.13a4.27,4.27,0,0,1-1.35-2.49c-.1-.54-.27-1.07-.34-1.61-.12-.77-.19-1.54-.29-2.31a2.59,2.59,0,0,0-.18-.81,1.78,1.78,0,0,1,0-1.36c.09-.33.24-.65.33-1a3,3,0,0,1,.91-1.6c.38-.31.45-.81.91-1.14a9.39,9.39,0,0,1,4.45-1.43,5.16,5.16,0,0,1,4.39,1.56,7.35,7.35,0,0,1,1.93,3.27,6.49,6.49,0,0,1,.13,1.1A20.73,20.73,0,0,1,200.14,23.41Z"/><path class="cls-1" d="M134.42,13.67c0,.31-.1.43-.42.47-.69.07-1.36.25-2,.32a3.19,3.19,0,0,1-1.1-.13c-.47-.12-.79,0-.84.5s-.08,1.11-.11,1.68c0,1.3-.09,2.61-.14,3.91,0,.9-.1,1.8-.13,2.7-.06,1.88,0,3.76-.17,5.63a10.77,10.77,0,0,0,.12,4,2,2,0,0,1,0,.65c0,.56-.11.61-.68.64a14,14,0,0,0-3.54.17,1,1,0,0,1-.29,0c-.52,0-.66-.13-.71-.66a11.49,11.49,0,0,1,0-1.31c0-1.13.09-2.25.12-3.38,0-.58,0-1.18,0-1.77,0-.87.1-1.75.11-2.62,0-.53-.11-1.06-.12-1.58,0-1.78,0-3.56,0-5.33a6.62,6.62,0,0,1,.31-2.58c.2-.53,0-.68-.61-.67-1,0-1.93-.06-2.89-.11-.12,0-.32-.16-.32-.26,0-.77,0-1.55,0-2.33,0-.22.13-.32.36-.33.62,0,1.25-.09,1.87-.1.89,0,1.3-.33,1.37-1.18s.14-2,.19-3h0c0-.72,0-1.44,0-2.15a1.54,1.54,0,0,1,.92-1.51c.46-.26.94-.49,1.41-.74A4.36,4.36,0,0,1,129.43,2,10.69,10.69,0,0,0,131,1.85c.4,0,.8-.13,1.2-.15a1,1,0,0,1,.62.15,2.25,2.25,0,0,1,1,1.8c0,.73.33,1.47-.1,2.2a1.61,1.61,0,0,0-.3.52.62.62,0,0,0-.77-.16c-.44.23-.85.52-1.3.72a2.4,2.4,0,0,0-1.32,1.93,12.77,12.77,0,0,1-.29,2c-.15.4.12.64.56.65.21,0,.44-.11.64,0a7.45,7.45,0,0,0,2.78.2c.42,0,.6.15.63.5S134.4,13.17,134.42,13.67Z"/><path class="cls-1" d="M135.39,14a7.64,7.64,0,0,1-.19-1.18c-.08-.61-.11-1.24-.23-1.84s-.24-.68-.83-.52a1.92,1.92,0,0,1-1.45-.05,2.2,2.2,0,0,0-1-.1c-.54,0-.77-.09-.87-.59a2.18,2.18,0,0,1,2.26-2.53c.32,0,.56.06.7-.26a.3.3,0,0,0,0-.32,1.29,1.29,0,0,0,.35-.16c.33.07.45-.16.54-.4a1.17,1.17,0,0,0,0-.46c-.08-1.43-.18-2.86-.26-4.3,0-.37-.15-.59-.56-.56l-2.24.15c-.68.06-1.37.13-2.05.21a8.06,8.06,0,0,0-1.56.25,11.32,11.32,0,0,0-2.31,1,3.06,3.06,0,0,0-1.76,3,20.29,20.29,0,0,1,0,2.34c0,.65-.07,1.31-.11,2a.6.6,0,0,1-.66.63c-.62,0-1.24,0-1.87,0a5.78,5.78,0,0,0-.83.05c-.45.09-.62.28-.55.71a9.42,9.42,0,0,1,.11,3.35c-.09.43.15.63.57.66.84.06,1.69.11,2.53.18.58.05.69.17.66.75a10.3,10.3,0,0,0-.16,1.21c.09,2.46-.08,4.94.23,7.4a4.59,4.59,0,0,1,0,.74c0,1-.1,2-.13,3a15.17,15.17,0,0,1,0,2.34,20.86,20.86,0,0,0-.13,4.1c0,.25.1.5.45.48a4.46,4.46,0,0,0,1.1,0,9.94,9.94,0,0,1,4-.26,2.81,2.81,0,0,0,.65,0,.91.91,0,0,0,.77-.92c0-.62-.09-1.24-.16-1.86a11.3,11.3,0,0,1-.19-1.39c0-1.27.12-2.55.16-3.83,0-.94,0-1.88.06-2.81.09-1.75.22-3.5.32-5.25,0-.87.05-1.74,0-2.62,0-.45.18-.71.63-.78s.92-.13,1.38-.17c.66-.06,1.31-.06,2-.15S135.57,14.7,135.39,14Zm-1.39.1c-.69.07-1.36.25-2,.32a3.19,3.19,0,0,1-1.1-.13c-.47-.12-.79,0-.84.5s-.08,1.11-.11,1.68c0,1.3-.09,2.61-.14,3.91,0,.9-.1,1.8-.13,2.7-.06,1.88,0,3.76-.17,5.63a10.77,10.77,0,0,0,.12,4,2,2,0,0,1,0,.65c0,.56-.11.61-.68.64a14,14,0,0,0-3.54.17,1,1,0,0,1-.29,0c-.52,0-.66-.13-.71-.66a11.49,11.49,0,0,1,0-1.31c0-1.13.09-2.25.12-3.38,0-.58,0-1.18,0-1.77,0-.87.1-1.75.11-2.62,0-.53-.11-1.06-.12-1.58,0-1.78,0-3.56,0-5.33a6.62,6.62,0,0,1,.31-2.58c.2-.53,0-.68-.61-.67-1,0-1.93-.06-2.89-.11-.12,0-.32-.16-.32-.26,0-.77,0-1.55,0-2.33,0-.22.13-.32.36-.33.62,0,1.25-.09,1.87-.1.89,0,1.3-.33,1.37-1.18s.14-2,.19-3h0c0-.72,0-1.44,0-2.15a1.54,1.54,0,0,1,.92-1.51c.46-.26.94-.49,1.41-.74A4.36,4.36,0,0,1,129.43,2,10.69,10.69,0,0,0,131,1.85c.4,0,.8-.13,1.2-.15a1,1,0,0,1,.62.15,2.25,2.25,0,0,1,1,1.8c0,.73.33,1.47-.1,2.2a1.61,1.61,0,0,0-.3.52.62.62,0,0,0-.77-.16c-.44.23-.85.52-1.3.72a2.4,2.4,0,0,0-1.32,1.93,12.77,12.77,0,0,1-.29,2c-.15.4.12.64.56.65.21,0,.44-.11.64,0a7.45,7.45,0,0,0,2.78.2c.42,0,.6.15.63.5s0,1,0,1.49C134.43,14,134.32,14.1,134,14.14Z"/><path class="cls-1" d="M153.14,14.09c.11-.93.22-1.86.27-2.8a8,8,0,0,0-.12-1.76c-.1-.51-.38-.65-.91-.54a15.55,15.55,0,0,0-1.89.52,14,14,0,0,1-1.42.66,6.45,6.45,0,0,0-2.46,1.64,4.7,4.7,0,0,1-.43.35c-.24.13-.45.08-.47-.22s0-.88,0-1.32-.18-.63-.72-.55a19.48,19.48,0,0,1-4.45.12c-.21,0-.44-.15-.64-.11a3.32,3.32,0,0,0-1.31.37c-.19.13-.19.62-.2.94,0,1.13-.06,2.25,0,3.37a7.39,7.39,0,0,0,.19,1.77,6.26,6.26,0,0,1,0,2.79,5.61,5.61,0,0,0-.06.92c0,.59,0,1.19,0,1.78a4.71,4.71,0,0,0,0,.84c.15.95.34,1.89.51,2.84a2.48,2.48,0,0,1,0,.47c0,1.14,0,2.29,0,3.44h-.12c0,1.13,0,2.26,0,3.38a13.35,13.35,0,0,0,.2,1.67c0,.34.23.46.59.41.87-.11,1.74-.17,2.61-.24a3.66,3.66,0,0,1,1.39,0,2,2,0,0,0,1.81-.44c.38-.27.46-.45.2-.86a3.8,3.8,0,0,1-.47-2.25c0-1.18.17-2.36.23-3.55,0-.65,0-1.31,0-2a11.8,11.8,0,0,1,.07-3.46c.28-1.18.67-2.34,1-3.52a2.69,2.69,0,0,1,1.37-1.7,7.37,7.37,0,0,1,1.25-.64,5.11,5.11,0,0,1,3.47-.07c.34.13.59.05.71-.2a1.1,1.1,0,0,0,.07-.86A1.73,1.73,0,0,1,153.14,14.09Zm-.84-.15c0,.25-.09.5-.13.74-.07.47-.11.53-.59.4a3,3,0,0,0-1.74.13,9,9,0,0,0-2.25.91c-.18.13-.35.25-.54.37a4.63,4.63,0,0,0-1.73,3,34.69,34.69,0,0,0-.74,3.65,2.62,2.62,0,0,0-.06.92,24.48,24.48,0,0,1,0,5.61,21,21,0,0,0,.06,3.46c.07.61,0,.64-.58.66s-1.17,0-1.75,0-1.23.12-1.84.22c-.37.06-.44-.11-.42-.41,0,0,0-.07,0-.09a5.34,5.34,0,0,0-.08-2.86,20.86,20.86,0,0,1,.06-3.26,9,9,0,0,0-.37-3.77,7,7,0,0,1-.25-2.4c0-1,.14-1.93.16-2.89a15,15,0,0,0-.12-1.77c-.06-.66-.18-1.3-.22-1.95,0-.84,0-1.69-.06-2.53,0-.22,0-.43,0-.65a.38.38,0,0,1,.43-.39c.21,0,.44-.14.63-.08a10.88,10.88,0,0,0,3,0h.66c1,0,1,0,1,1.38-.06.4-.18,1.17-.3,1.94,0,.3-.17.64.21.82.21.09.78-.31.85-.61a2,2,0,0,1,.48-1.19,17.11,17.11,0,0,1,2-1.77,17.08,17.08,0,0,1,2.37-1.1,9.63,9.63,0,0,1,1.11-.46c.69-.19,1.07-.17,1,.66C152.57,11.77,152.41,12.86,152.3,13.94Z"/><path class="cls-1" d="M152.62,10.68c-.05,1.09-.21,2.18-.32,3.26,0,.25-.09.5-.13.74-.07.47-.11.53-.59.4a3,3,0,0,0-1.74.13,9,9,0,0,0-2.25.91c-.18.13-.35.25-.54.37a4.63,4.63,0,0,0-1.73,3,34.69,34.69,0,0,0-.74,3.65,2.62,2.62,0,0,0-.06.92,24.48,24.48,0,0,1,0,5.61,21,21,0,0,0,.06,3.46c.07.61,0,.64-.58.66s-1.17,0-1.75,0-1.23.12-1.84.22c-.37.06-.44-.11-.42-.41,0,0,0-.07,0-.09a5.34,5.34,0,0,0-.08-2.86,20.86,20.86,0,0,1,.06-3.26,9,9,0,0,0-.37-3.77,7,7,0,0,1-.25-2.4c0-1,.14-1.93.16-2.89a15,15,0,0,0-.12-1.77c-.06-.66-.18-1.3-.22-1.95,0-.84,0-1.69-.06-2.53,0-.22,0-.43,0-.65a.38.38,0,0,1,.43-.39c.21,0,.44-.14.63-.08a10.88,10.88,0,0,0,3,0h.66c1,0,1,0,1,1.38-.06.4-.18,1.17-.3,1.94,0,.3-.17.64.21.82.21.09.78-.31.85-.61a2,2,0,0,1,.48-1.19,17.11,17.11,0,0,1,2-1.77,17.08,17.08,0,0,1,2.37-1.1,9.63,9.63,0,0,1,1.11-.46C152.27,9.83,152.65,9.85,152.62,10.68Z"/><path class="cls-1" d="M226.69,9.38a.7.7,0,0,0-1-.63,21.29,21.29,0,0,0-4.1,1.46c-.74.43-1.58.78-1.94,1.68a1.46,1.46,0,0,1-.51.54c-.14.11-.32.07-.33-.15a4.81,4.81,0,0,1,.08-.65,1.78,1.78,0,0,0-.24-1.68c-.06-.07-.05-.23-.05-.35,0-.42-.23-.44-.56-.39a5.68,5.68,0,0,1-1.47.14,11.18,11.18,0,0,0-3.27.1,6.66,6.66,0,0,0-1.73.67c-.27.14-.23.55,0,.57.68,0,.63.49.63.92,0,.75,0,1.5,0,2.25a30.7,30.7,0,0,1,.09,4.29,2.31,2.31,0,0,0,0,.37h0c-.08,1.37-.17,2.74-.24,4.1a29.12,29.12,0,0,0-.12,3.09A48.21,48.21,0,0,1,212,31c-.08,1-.18,1.93-.24,2.89-.05.64.14.79.75.7a3.6,3.6,0,0,1,.55-.07c1.74.05,3.5-.3,5.23.25.17.06.5-.19.67-.38s.05-.37-.15-.53a.79.79,0,0,1-.18-.49c0-1.06,0-2.13,0-3.19,0-1.69.2-3.38.22-5.06a23.26,23.26,0,0,1,.71-5.19,7,7,0,0,0,.19-1.2,1.57,1.57,0,0,1,.5-1.16,5.91,5.91,0,0,1,5.29-1.77c.91.13,1.09,0,1.09-1a3.12,3.12,0,0,1,0-.75A12.54,12.54,0,0,0,226.69,9.38Zm-.77,5c-.06.41-.3.45-.67.45a8,8,0,0,0-4.1,1,8.45,8.45,0,0,0-2,1.72A5.74,5.74,0,0,0,218.08,20a2,2,0,0,0-.06.55c0,.93,0,1.85,0,2.79h.12c-.09,2.31-.15,4.62-.28,6.92a27.18,27.18,0,0,1-.41,3,.5.5,0,0,1-.37.3c-1.12,0-2.24.08-3.36.06-.93,0-1.07-.21-1-1.14.05-1.81.14-3.62.17-5.43,0-1.25-.06-2.49-.05-3.74a18.43,18.43,0,0,1,.13-2,26.89,26.89,0,0,0,.08-5.88,31.78,31.78,0,0,1,0-4.78.44.44,0,0,1,.45-.47,10.47,10.47,0,0,1,2.68-.14,8.68,8.68,0,0,0,1,0c.6,0,.81.16.94.72a2.74,2.74,0,0,1-.65,2.77c-.41.4-.39.58.08,1.08.27.28.54.28.87-.1s.83-1.08,1.25-1.62a9,9,0,0,1,2.45-2.13,9.29,9.29,0,0,1,3.14-1.07c.41-.09.6.07.67.43A13.3,13.3,0,0,1,225.92,14.42Z"/><path class="cls-1" d="M225.92,14.42c-.06.41-.3.45-.67.45a8,8,0,0,0-4.1,1,8.45,8.45,0,0,0-2,1.72A5.74,5.74,0,0,0,218.08,20a2,2,0,0,0-.06.55c0,.93,0,1.85,0,2.79h.12c-.09,2.31-.15,4.62-.28,6.92a27.18,27.18,0,0,1-.41,3,.5.5,0,0,1-.37.3c-1.12,0-2.24.08-3.36.06-.93,0-1.07-.21-1-1.14.05-1.81.14-3.62.17-5.43,0-1.25-.06-2.49-.05-3.74a18.43,18.43,0,0,1,.13-2,26.89,26.89,0,0,0,.08-5.88,31.78,31.78,0,0,1,0-4.78.44.44,0,0,1,.45-.47,10.47,10.47,0,0,1,2.68-.14,8.68,8.68,0,0,0,1,0c.6,0,.81.16.94.72a2.74,2.74,0,0,1-.65,2.77c-.41.4-.39.58.08,1.08.27.28.54.28.87-.1s.83-1.08,1.25-1.62a9,9,0,0,1,2.45-2.13,9.29,9.29,0,0,1,3.14-1.07c.41-.09.6.07.67.43A13.3,13.3,0,0,1,225.92,14.42Z"/><path class="cls-1" d="M237.28,30.85c0-2.19.07-4.38.05-6.56,0-2.75-.1-5.5-.15-8.25,0-1.87,0-3.74,0-5.61h.09a1.77,1.77,0,0,0,0-.65c-.05-.18-.22-.43-.37-.46-.93-.11-1.86-.22-2.79-.24-.78,0-1.55.08-2.33.1-1,0-1.49.49-1.5,1.46,0,.69.07,1.37.07,2.06,0,2.4,0,4.8,0,7.2a19,19,0,0,0,0,2.62,21.26,21.26,0,0,1,.27,4.36c-.17,2.24-.39,4.47-.56,6.71a3.58,3.58,0,0,0,.08.92c0,.21.19.31.41.14s.39-.21.52-.36a1.4,1.4,0,0,1,1.19-.45c1.4.08,2.8.16,4.2.27.64,0,.65.09.84-.48a2.84,2.84,0,0,0,.1-.82C237.38,32.16,237.29,31.5,237.28,30.85Zm-.62,1.58c-.06.76-.19.93-.92.78a18.74,18.74,0,0,0-3.35-.12c-1.41,0-1.41,0-1.36-1.51s.09-3.25.37-4.92a7.84,7.84,0,0,0-.05-1.67c-.08-1.18-.21-2.35-.24-3.54-.06-1.93,0-3.86-.06-5.79,0-1.4,0-2.8,0-4.2,0-1,.29-1.3,1.26-1.41A12.89,12.89,0,0,1,234,10c.53,0,1.06.07,1.58.12s.66.18.67.69a49.91,49.91,0,0,1,.12,5.33,8.29,8.29,0,0,0,0,1.22,60.89,60.89,0,0,1,.13,7.4c0,1.34,0,2.68,0,4,0,1.06.07,2.12.1,3.18A3.73,3.73,0,0,1,236.66,32.43Z"/><path class="cls-1" d="M236.67,32a3.73,3.73,0,0,1,0,.47c-.06.76-.19.93-.92.78a18.74,18.74,0,0,0-3.35-.12c-1.41,0-1.41,0-1.36-1.51s.09-3.25.37-4.92a7.84,7.84,0,0,0-.05-1.67c-.08-1.18-.21-2.35-.24-3.54-.06-1.93,0-3.86-.06-5.79,0-1.4,0-2.8,0-4.2,0-1,.29-1.3,1.26-1.41A12.89,12.89,0,0,1,234,10c.53,0,1.06.07,1.58.12s.66.18.67.69a49.91,49.91,0,0,1,.12,5.33,8.29,8.29,0,0,0,0,1.22,60.89,60.89,0,0,1,.13,7.4c0,1.34,0,2.68,0,4C236.6,29.84,236.64,30.9,236.67,32Z"/><path class="cls-1" d="M237,5.75c-.11-.87-.28-1.73-.31-2.61a16.49,16.49,0,0,1,.13-2.32c.06-.7-.16-.91-.86-.79a2.6,2.6,0,0,1-.83.08,19.18,19.18,0,0,0-4.28.2.79.79,0,0,0-.72.64,4,4,0,0,0-.12.92c0,.44,0,.87,0,1.3l.15,3.08a.43.43,0,0,0,.45.48L233,7s0-.06,0-.09l.84,0a7.38,7.38,0,0,0,2.68-.34C237,6.43,237.11,6.23,237,5.75Zm-1.68.2a8.18,8.18,0,0,1-3,0,5.21,5.21,0,0,0-.55-.08c-.68,0-.69,0-.72-.73,0-.5,0-1,0-1.49h0c0-.5-.06-1-.06-1.49,0-.9.3-1.12,1.2-1.11.55,0,1.1-.09,1.65-.09a15.28,15.28,0,0,1,1.65.13c.1,0,.2.18.29.28a.17.17,0,0,1,0,.1c-.14,1.25.31,2.45.28,3.69C236,5.82,236.07,5.84,235.36,6Z"/><path class="cls-1" d="M236.06,5.12c0,.7,0,.72-.7.83a8.18,8.18,0,0,1-3,0,5.21,5.21,0,0,0-.55-.08c-.68,0-.69,0-.72-.73,0-.5,0-1,0-1.49h0c0-.5-.06-1-.06-1.49,0-.9.3-1.12,1.2-1.11.55,0,1.1-.09,1.65-.09a15.28,15.28,0,0,1,1.65.13c.1,0,.2.18.29.28a.17.17,0,0,1,0,.1C235.64,2.68,236.09,3.88,236.06,5.12Z"/><path class="cls-1" d="M174.09,19.3a25,25,0,0,0-1.48-3.7.43.43,0,0,0-.2-.2,4.6,4.6,0,0,0-3.51-1,5.63,5.63,0,0,1-1.3,0,5,5,0,0,0-3.16,1,6.6,6.6,0,0,0-2.57,3.68l-.15.54c0,.25.11.49.13.74,0,.41.26.53.62.53h.38c2.09-.05,4.18-.08,6.27-.14a15.7,15.7,0,0,0,1.94-.16,3.78,3.78,0,0,1,2,.09.65.65,0,0,0,.51-.07A1.35,1.35,0,0,0,174.09,19.3Zm-1.58.21c-1.1.15-2.21.34-3.32.44-.67.06-1.36,0-2,0-1.06,0-2.11.11-3.17.18-1.39.1-1.59-.15-1-1.43a6.75,6.75,0,0,1,1.1-1.83,4.07,4.07,0,0,1,2.83-1.44l1.86-.14v0a9.9,9.9,0,0,1,1.22,0,2.38,2.38,0,0,1,1.82,1.18A25.7,25.7,0,0,1,172.91,19C173.09,19.41,173.05,19.43,172.51,19.51Z"/><path class="cls-1" d="M200.53,19.19a7.35,7.35,0,0,0-1.93-3.27,5.16,5.16,0,0,0-4.39-1.56,9.39,9.39,0,0,0-4.45,1.43c-.46.33-.53.83-.91,1.14a3,3,0,0,0-.91,1.6c-.09.32-.24.64-.33,1a1.78,1.78,0,0,0,0,1.36,2.59,2.59,0,0,1,.18.81c.1.77.17,1.54.29,2.31.07.54.24,1.07.34,1.61a4.27,4.27,0,0,0,1.35,2.49c.39.35.59.79.92,1.13a4.55,4.55,0,0,0,1.29.69.44.44,0,0,1,.13.14,2.8,2.8,0,0,0,2.71.47,7.81,7.81,0,0,0,1.59-.53,4.31,4.31,0,0,0,2-1.25A6.17,6.17,0,0,0,200,24.88a4.87,4.87,0,0,1,.19-1.47,20.73,20.73,0,0,0,.52-3.12A6.49,6.49,0,0,0,200.53,19.19Zm-1.07,3.61c0,.28-.07.56-.11.83-.07.46-.13.92-.2,1.39a1.21,1.21,0,0,0-.1.36c.1,1.22-.68,2.06-1.28,3a.85.85,0,0,1-.32.33,12.47,12.47,0,0,1-3.16,1,2.28,2.28,0,0,1-1.67-.42c-.68-.44-1.35-.91-2-1.39a3.24,3.24,0,0,1-1.32-2.18,2.3,2.3,0,0,0-.15-.64,9.9,9.9,0,0,1-.51-3.13,10.55,10.55,0,0,1,.68-4.48,3.36,3.36,0,0,1,2.21-1.91,20.42,20.42,0,0,1,2.19-.5,5.2,5.2,0,0,1,4.78,1.76,1.92,1.92,0,0,1,.31.47,9.75,9.75,0,0,1,.74,1.61,6,6,0,0,1,.21,1.84A17.57,17.57,0,0,1,199.46,22.8Z"/></g></g></svg>